{"title":"University Challenge S45E37 webrip x264","uid":14468199,"size":198857511,"categoryP":"video","categoryS":"movies","magnet":"?xt=urn:btih:72d2e387ccc816940fd2fbbf147000fe90cdaf43&amp;dn=University+Challenge+S45E37+webrip+x264&amp;tr=udp%3A%2F%2Ftracker.leechers-paradise.org%3A6969&amp;tr=udp%3A%2F%2Fzer0day.ch%3A1337&amp;tr=udp%3A%2F%2Fopen.demonii.com%3A1337&amp;tr=udp%3A%2F%2Ftracker.coppersurfer.tk%3A6969&amp;tr=udp%3A%2F%2Fexodus.desync.com%3A6969","seeders":0,"leechers":0,"uploader":"Pongydog","files":1,"time":1461881924,"description":"https://en.wikipedia.org/wiki/University_Challenge_2015%E2%80%9316\r\n\r\n\r\ngrand final of this years series.\r\n\r\nGeneral\r\nComplete name                            : C:Usersuser1VideosUniversity Challenge S45E37 webrip x264.mp4\r\nFormat                                   : MPEG-4\r\nFormat profile                           : Base Media\r\nCodec ID                                 : isom\r\nFile size                                : 190 MiB\r\nDuration                                 : 29mn 18s\r\nOverall bit rate                         : 905 Kbps\r\nEncoded date                             : UTC 2016-04-20 21:47:56\r\nTagged date                              : UTC 2016-04-20 21:47:56\r\nWriting application                      : Lavf55.23.103\r\n\r\nVideo\r\nID                                       : 1\r\nFormat                                   : AVC\r\nFormat/Info                              : Advanced Video Codec\r\nFormat profile                           :   \r\nFormat settings, CABAC                   : Yes\r\nFormat settings, ReFrames                : 2 frames\r\nCodec ID                                 : avc1\r\nCodec ID/Info                            : Advanced Video Coding\r\nDuration                                 : 29mn 18s\r\nBit rate                                 : 800 Kbps\r\nWidth                                    : 720 pixels\r\nHeight                                   : 404 pixels\r\nDisplay aspect ratio                     : 16:9\r\nOriginal display aspect ratio            : 16:9\r\nFrame rate mode                          : Constant\r\nFrame rate                               : 50.000 fps\r\nColor space                              : YUV\r\nChroma subsampling                       : 4:2:0\r\nBit depth                                : 8 bits\r\nScan type                                : Progressive\r\nBits/(Pixel*Frame)                       : 0.055\r\nStream size                              : 168 MiB (88%)\r\nWriting library                          : x264 core 140 r2345\r\nEncoding settings                        : cabac=1 / ref=2 / deblock=1:0:0 / analyse=0x1:0x131 / me=hex / subme=7 / psy=1 / psy_rd=1.00:0.00 / mixed_ref=0 / me_range=16 / chroma_me=1 / trellis=1 / 8x8dct=0 / cqm=0 / deadzone=21,11 / fast_pskip=1 / chroma_qp_offset=-2 / threads=3 / lookahead_threads=1 / sliced_threads=0 / nr=0 / decimate=1 / interlaced=0 / bluray_compat=0 / constrained_intra=0 / bframes=3 / b_pyramid=0 / b_adapt=1 / b_bias=0 / direct=3 / weightb=1 / open_gop=0 / weightp=2 / keyint=500 / keyint_min=50 / scenecut=40 / intra_refresh=0 / rc_lookahead=40 / rc=2pass / mbtree=1 / bitrate=800 / ratetol=1.0 / qcomp=0.60 / qpmin=10 / qpmax=69 / qpstep=4 / cplxblur=20.0 / qblur=0.5 / vbv_maxrate=24000 / vbv_bufsize=24000 / nal_hrd=none / filler=0 / ip_ratio=1.40 / aq=1:1.00\r\nEncoded date                             : UTC 2016-04-20 21:47:56\r\nTagged date                              : UTC 2016-04-20 21:47:56\r\n\r\nAudio\r\nID                                       : 2\r\nFormat                                   : AAC\r\nFormat/Info                              : Advanced Audio Codec\r\nFormat profile                           : LC\r\nCodec ID                                 : 40\r\nDuration                                 : 29mn 18s\r\nBit rate mode                            : Constant\r\nBit rate                                 : 96.0 Kbps\r\nChannel(s)                               : 2 channels\r\nChannel positions                        : Front: L R\r\nSampling rate                            : 48.0 KHz\r\nCompression mode                         : Lossy\r\nStream size                              : 20.1 MiB (11%)\r\nEncoded date                             : UTC 2016-04-20 21:47:56\r\nTagged date                              : UTC 2016-04-20 21:47:56","torrent":{"xt":"urn:btih:72d2e387ccc816940fd2fbbf147000fe90cdaf43","amp;dn":"University+Challenge+S45E37+webrip+x264","amp;tr":["udp%3A%2F%2Ftracker.leechers-paradise.org%3A6969","udp%3A%2F%2Fzer0day.ch%3A1337","udp%3A%2F%2Fopen.demonii.com%3A1337","udp%3A%2F%2Ftracker.coppersurfer.tk%3A6969","udp%3A%2F%2Fexodus.desync.com%3A6969"],"infoHash":"72d2e387ccc816940fd2fbbf147000fe90cdaf43","infoHashBuffer":{"type":"Buffer","data":[114,210,227,135,204,200,22,148,15,210,251,191,20,112,0,254,144,205,175,67]},"announce":[],"urlList":[]}}